<svg width="54" height="54" viewBox="0 0 54 54" fill="none" xmlns="http://www.w3.org/2000/svg">
<rect x="26.8701" y="1.41421" width="36" height="36" rx="4" transform="rotate(45 26.8701 1.41421)" stroke="white" stroke-width="2"/>
<path d="M27 30.6577C29.2853 30.6577 31.1379 28.8051 31.1379 26.5198C31.1379 24.2345 29.2853 22.3818 27 22.3818C24.7147 22.3818 22.8621 24.2345 22.8621 26.5198C22.8621 28.8051 24.7147 30.6577 27 30.6577Z" fill="white"/>
<path d="M31.9749 16.7185C29.4956 16.6506 24.533 16.6506 22.0537 16.7185C20.7634 16.7539 19.3007 17.0746 18.3815 18.055C17.4262 19.0742 17.0652 20.3054 17.0286 21.6829C16.9643 24.1005 17.0286 31.3568 17.0286 31.3568C17.0705 32.734 17.4262 33.9655 18.3815 34.9846C19.3007 35.9653 20.7634 36.2857 22.0537 36.3211C24.533 36.389 29.4956 36.389 31.9749 36.3211C33.2652 36.2857 34.7279 35.965 35.6472 34.9846C36.6024 33.9655 36.9634 32.7342 37 31.3568V21.6829C36.9634 20.3054 36.6024 19.0742 35.6472 18.055C34.7276 17.0743 33.2649 16.7539 31.9749 16.7185ZM27.014 32.9591C25.7385 32.9591 24.4917 32.5814 23.4312 31.8739C22.3707 31.1663 21.5441 30.1606 21.056 28.984C20.5679 27.8074 20.4402 26.5127 20.6891 25.2636C20.9379 24.0145 21.5521 22.8671 22.454 21.9666C23.3558 21.066 24.5049 20.4527 25.7559 20.2043C27.0068 19.9558 28.3035 20.0833 29.4818 20.5707C30.6602 21.0581 31.6674 21.8834 32.376 22.9424C33.0846 24.0013 33.4628 25.2463 33.4628 26.5198C33.4628 28.2276 32.7834 29.8655 31.574 31.0731C30.3646 32.2807 28.7243 32.9591 27.014 32.9591ZM33.4902 21.4097C33.2352 21.4096 32.9858 21.3341 32.7738 21.1925C32.5617 21.051 32.3965 20.8498 32.2989 20.6145C32.2013 20.3792 32.1758 20.1202 32.2256 19.8704C32.2754 19.6206 32.3983 19.3912 32.5787 19.2111C32.7591 19.031 32.9889 18.9084 33.2391 18.8587C33.4892 18.8091 33.7486 18.8346 33.9842 18.9321C34.2199 19.0296 34.4213 19.1946 34.563 19.4064C34.7047 19.6182 34.7803 19.8672 34.7803 20.1219C34.7803 20.291 34.747 20.4585 34.6821 20.6148C34.6173 20.771 34.5223 20.913 34.4025 21.0326C34.2827 21.1522 34.1404 21.2471 33.9839 21.3118C33.8274 21.3765 33.6596 21.4098 33.4902 21.4097Z" fill="white"/>
</svg>
