<svg width="54" height="54" viewBox="0 0 54 54" fill="none" xmlns="http://www.w3.org/2000/svg">
<rect x="26.8701" y="1.41421" width="36" height="36" rx="4" transform="rotate(45 26.8701 1.41421)" stroke="white" stroke-width="2"/>
<path d="M20.1614 27.8654C19.5873 28.9939 20.2391 29.5334 21.7263 30.4549C22.9906 31.2359 24.7371 31.5216 25.8591 31.6358C25.3993 32.0778 27.5064 30.0512 21.4378 35.8885C20.1511 37.1219 22.2226 39.1007 23.5084 37.8935L26.9894 34.5362C28.3221 35.8182 29.5995 37.0469 30.4704 37.8982C31.7572 39.1101 33.8278 37.1481 32.5551 35.8932C32.4596 35.8023 27.8379 31.3689 28.1198 31.6405C29.2558 31.5262 30.9761 31.2237 32.2254 30.4596L32.2245 30.4586C33.7117 29.5324 34.3635 28.9939 33.7978 27.8654C33.456 27.2249 32.5345 26.6892 31.3077 27.6154C31.3077 27.6154 29.651 28.8844 26.9791 28.8844C24.3064 28.8844 22.6506 27.6154 22.6506 27.6154C21.4247 26.6845 20.4995 27.2249 20.1614 27.8654Z" fill="white"/>
<path d="M26.9773 27.1734C30.2344 27.1734 32.8941 24.628 32.8941 21.4944C32.8941 18.3478 30.2344 15.8024 26.9773 15.8024C23.7192 15.8024 21.0595 18.3478 21.0595 21.4944C21.0595 24.628 23.7192 27.1734 26.9773 27.1734ZM26.9773 18.6859C28.5777 18.6859 29.8832 19.9417 29.8832 21.4944C29.8832 23.0341 28.5777 24.2899 26.9773 24.2899C25.3768 24.2899 24.0713 23.0341 24.0713 21.4944C24.0703 19.9408 25.3758 18.6859 26.9773 18.6859Z" fill="white"/>
</svg>
