<svg width="54" height="54" viewBox="0 0 54 54" fill="none" xmlns="http://www.w3.org/2000/svg">
<rect x="26.8701" y="1.41421" width="36" height="36" rx="4" transform="rotate(45 26.8701 1.41421)" stroke="white" stroke-width="2"/>
<path d="M37 20.9048C36.2149 21.2425 35.4295 21.4534 34.6448 21.5381C35.5312 21.0063 36.1307 20.255 36.4431 19.2842C35.6323 19.7653 34.7671 20.0944 33.847 20.2718C33.0365 19.4107 32.0405 18.98 30.8584 18.98C29.7273 18.98 28.7629 19.3788 27.9648 20.1766C27.1671 20.9744 26.7683 21.9388 26.7683 23.07C26.7683 23.3739 26.802 23.6863 26.8696 24.0071C25.198 23.9227 23.6299 23.5027 22.1651 22.7472C20.7004 21.9915 19.4573 20.9848 18.4359 19.727C18.0644 20.36 17.8786 21.0481 17.8786 21.791C17.8786 22.4917 18.0432 23.1418 18.3726 23.7412C18.7018 24.3405 19.1451 24.8259 19.7023 25.1974C19.0437 25.172 18.4275 24.9989 17.8535 24.6781V24.7287C17.8535 25.7165 18.1638 26.5837 18.7842 27.3311C19.4047 28.0784 20.1877 28.5487 21.1332 28.743C20.7786 28.8357 20.4197 28.8822 20.0567 28.8822C19.8203 28.8822 19.5628 28.8611 19.2843 28.8192C19.546 29.6379 20.0272 30.3109 20.7278 30.8388C21.4285 31.3664 22.2221 31.6384 23.1086 31.6557C21.6228 32.8205 19.9302 33.4029 18.0307 33.4029C17.6677 33.4029 17.3385 33.3864 17.043 33.3524C18.9425 34.5764 21.0361 35.1883 23.3239 35.1883C24.776 35.1883 26.1394 34.9585 27.4137 34.4983C28.6887 34.0384 29.7776 33.422 30.681 32.6494C31.5841 31.877 32.3631 30.9885 33.0173 29.9839C33.6715 28.9793 34.1588 27.9305 34.4799 26.8373C34.8006 25.7438 34.961 24.6487 34.961 23.5511C34.961 23.3147 34.9568 23.1375 34.9483 23.0192C35.7505 22.437 36.4343 21.732 37 20.9048Z" fill="white"/>
</svg>
